<?xml version="1.0" standalone="no"?>
<!DOCTYPE svg PUBLIC "-//W3C//DTD SVG 20010904//EN"
 "http://www.w3.org/TR/2001/REC-SVG-20010904/DTD/svg10.dtd">
<svg version="1.0" xmlns="http://www.w3.org/2000/svg" width="350.000000pt" height="308.000000pt" viewBox="0 0 350.000000 308.000000" preserveAspectRatio="xMidYMid meet">

    <g transform="translate(0.000000,308.000000) scale(0.100000,-0.100000)" fill="#ffffff" stroke="none">
        <path d="M2162 2868 l3 -73 143 -3 142 -3 0 76 0 75 -145 0 -146 0 3 -72z"/>
        <path d="M2232 2703 l3 -58 73 -3 72 -3 0 61 0 60 -75 0 -76 0 3 -57z"/>
        <path d="M2298 2615 c-2 -1 -266 -13 -588 -26 -638 -26 -652 -30 -165 -49 165 6 301 -13 303 -14 1 -2 -32 -21 -74 -42 -41 -21 -115 -69 -163 -105 l-87 -66 -219 -12 c-121 -7 -221 -14 -223 -15 -1 -2 73 -6 165 -10 92 -4 180 -9 196 -12 l27 -6 -32 -40 c-18 -22 -56 -72 -84 -111 l-50 -72 -208 -12 c-114 -6 -212 -13 -219 -16 -7 -2 62 -7 153 -11 91 -4 184 -9 207 -12 l42 -6 -16 -32 c-9 -17 -29 -67 -44 -111 l-27 -80 -78 -7 c-44 -3 -142 -10 -219 -14 l-140 -8 130 -8 c298 -18 297 -18 291 -41 -3 -12 -9 -59 -12 -103 l-7 -81 -71 -6 c-39 -4 -204 -12 -366 -19 -338 -14 -324 -19 110 -37 157 -7 294 -14 306 -16 18 -4 22 -17 32 -94 7 -50 15 -96 18 -104 6 -17 -71 -23 -446 -34 -135 -4 -232 -9 -217 -11 15 -2 174 -9 353 -15 l326 -12 27 -75 c16 -41 36 -90 45 -108 10 -19 16 -35 14 -37 -4 -3 -226 -13 -486 -21 -122 -4 -221 -8 -220 -9 2 -2 170 -8 373 -15 l370 -13 47 -66 c26 -36 63 -84 83 -107 l35 -41 -192 -6 c-106 -4 -336 -10 -511 -14 -174 -3 -316 -7 -314 -9 1 -1 198 -7 437 -13 239 -6 484 -13 543 -16 107 -5 109 -6 162 -45 30 -22 80 -56 111 -74 l55 -34 -148 -6 c-81 -4 -447 -16 -813 -27 -365 -11 -666 -21 -667 -23 -2 -2 111 -6 249 -10 139 -3 606 -18 1038 -32 829 -27 1000 -27 1118 1 73 17 83 27 60 57 -12 15 -24 15 -107 5 -70 -8 -120 -8 -202 1 -398 45 -726 267 -895 607 -87 176 -120 355 -103 550 22 237 122 442 304 620 136 134 291 217 489 262 112 25 348 23 458 -5 165 -41 290 -106 399 -209 l69 -66 57 36 c32 19 59 39 61 45 4 14 -138 136 -220 189 -161 104 -344 161 -565 177 -34 2 -63 3 -65 1z"/>
        <path d="M2290 2335 c0 -42 3 -55 15 -55 12 0 15 13 15 55 0 42 -3 55 -15 55 -12 0 -15 -13 -15 -55z"/>
        <path d="M1837 2264 c-12 -12 44 -103 59 -97 18 7 18 11 -8 61 -22 40 -36 50 -51 36z"/>
        <path d="M2742 2258 c-10 -14 -42 -74 -42 -81 0 -3 6 -7 14 -10 17 -7 71 77 61 93 -8 14 -21 13 -33 -2z"/>
        <path d="M2645 1860 l-250 -219 -61 6 c-45 4 -68 1 -92 -11 -71 -37 -107 -110 -91 -186 8 -33 5 -38 -46 -90 -30 -31 -55 -60 -55 -65 0 -5 14 -24 32 -42 l32 -33 61 60 60 60 37 -12 c68 -21 160 24 188 92 8 19 11 53 7 89 l-5 59 219 252 c193 221 227 263 217 259 -2 0 -115 -99 -253 -219z m-291 -321 c51 -40 22 -122 -44 -122 -66 0 -95 82 -44 122 15 12 34 21 44 21 10 0 29 -9 44 -21z"/>
        <path d="M1507 1933 c-14 -13 -6 -23 36 -48 51 -29 53 -30 60 -11 4 10 -9 24 -38 40 -48 29 -49 29 -58 19z"/>
        <path d="M1380 1465 c0 -12 13 -15 55 -15 42 0 55 3 55 15 0 12 -13 15 -55 15 -42 0 -55 -3 -55 -15z"/>
        <path d="M1538 1044 c-38 -24 -46 -38 -29 -48 13 -8 103 44 98 58 -6 19 -31 16 -69 -10z"/>
        <path d="M1856 723 c-25 -44 -23 -75 3 -58 17 10 53 84 46 95 -12 19 -23 10 -49 -37z"/>
        <path d="M2290 595 c0 -42 3 -55 15 -55 12 0 15 13 15 55 0 42 -3 55 -15 55 -12 0 -15 -13 -15 -55z"/>
    </g>
</svg>
