<?xml version="1.0" standalone="no"?>
<!DOCTYPE svg PUBLIC "-//W3C//DTD SVG 20010904//EN"
 "http://www.w3.org/TR/2001/REC-SVG-20010904/DTD/svg10.dtd">
<svg version="1.0" xmlns="http://www.w3.org/2000/svg"
 width="248.000000pt" height="246.000000pt" viewBox="0 0 248.000000 246.000000"
 preserveAspectRatio="xMidYMid meet">

<g transform="translate(0.000000,246.000000) scale(0.100000,-0.100000)"
fill="#ffffff" stroke="none">
<path d="M80 2351 c-16 -31 -14 -1322 3 -1344 11 -14 63 -16 492 -21 264 -3
481 -5 483 -6 6 -1 1 -130 -6 -130 -4 0 -28 20 -52 45 -44 45 -75 56 -98 33
-28 -28 -12 -59 73 -147 l85 -88 0 -93 c0 -84 -2 -91 -17 -85 -69 29 -103 37
-149 32 -130 -13 -218 -109 -218 -237 0 -78 24 -131 84 -182 121 -105 315 -59
377 89 9 22 13 80 13 185 l0 153 90 0 90 0 0 -153 c0 -105 4 -163 13 -185 68
-161 283 -197 401 -66 134 149 44 376 -158 396 -46 5 -80 -3 -148 -32 -16 -6
-18 1 -18 85 l0 92 109 114 c61 63 118 128 128 144 l17 30 186 2 c102 2 260 3
351 3 126 0 170 3 182 14 16 12 17 71 17 673 0 435 -4 666 -10 679 -10 19 -34
19 -1160 19 -1126 0 -1150 0 -1160 -19z m2230 -671 l0 -600 -290 0 c-159 0
-290 2 -290 3 0 2 9 39 20 82 12 47 20 111 20 160 0 140 -24 205 -191 533 -84
164 -159 305 -167 315 -18 20 -55 22 -71 4 -7 -10 -12 -175 -13 -553 l-3 -539
-577 -3 -578 -2 0 600 0 600 1070 0 1070 0 0 -600z m-774 53 c119 -228 135
-277 137 -403 1 -161 -47 -279 -166 -406 -38 -41 -73 -74 -78 -74 -5 0 -9 226
-9 541 0 342 4 538 10 534 5 -3 53 -89 106 -192z m-222 -749 c11 -4 16 -19 16
-43 l0 -37 -87 2 -88 1 -3 27 c-6 50 2 56 77 56 38 0 76 -3 85 -6z m-40 -178
c100 -42 38 -190 -65 -154 -67 23 -71 125 -5 154 38 16 31 16 70 0z m-287
-376 c68 -41 88 -112 54 -184 -68 -139 -271 -91 -271 65 0 49 30 103 68 124
39 21 111 19 149 -5z m659 1 c37 -22 64 -76 64 -126 0 -150 -205 -195 -271
-59 -34 72 -14 143 54 184 41 26 112 26 153 1z"/>
<path d="M476 2144 c-9 -8 -16 -27 -16 -42 -1 -66 -77 -142 -142 -142 -56 0
-58 -8 -58 -280 0 -278 -1 -272 71 -284 58 -9 116 -67 125 -125 12 -74 -6 -71
389 -71 349 0 354 0 369 21 15 22 11 48 -8 61 -6 4 -154 8 -328 8 l-317 0 -26
54 c-28 60 -79 110 -134 133 -20 9 -39 20 -43 27 -10 14 -10 337 0 353 4 6 26
19 50 28 49 20 116 91 132 141 l12 34 96 1 c53 0 192 0 308 -1 235 -1 264 4
264 48 0 15 -5 33 -12 40 -9 9 -104 12 -364 12 -307 0 -355 -2 -368 -16z"/>
<path d="M1557 2142 c-37 -41 -11 -74 61 -78 26 -1 106 -3 178 -3 l131 -1 17
-44 c20 -52 87 -118 139 -137 l37 -13 0 -187 0 -187 -34 -12 c-52 -17 -112
-75 -141 -135 -25 -53 -27 -55 -66 -55 -32 0 -41 -4 -51 -25 -9 -21 -8 -28 7
-45 15 -17 31 -20 92 -20 81 0 78 -3 102 87 14 53 67 101 122 109 70 12 69 7
69 284 0 272 -2 280 -58 280 -65 0 -141 76 -142 142 0 55 -12 58 -239 58 -189
0 -209 -2 -224 -18z"/>
<path d="M1135 1958 c-176 -63 -248 -289 -142 -445 37 -55 113 -109 164 -119
30 -6 40 -3 54 15 26 32 13 58 -40 82 -59 26 -89 54 -112 104 -33 72 -19 166
34 224 12 13 46 34 75 47 46 21 52 27 52 54 0 19 -7 33 -19 40 -23 12 -27 12
-66 -2z"/>
<path d="M571 1802 c-99 -50 -105 -177 -11 -240 28 -19 44 -23 84 -19 41 4 55
11 83 40 18 20 35 48 39 62 15 62 -22 136 -82 161 -44 18 -72 18 -113 -4z m87
-94 c34 -34 -6 -90 -48 -68 -35 19 -20 80 20 80 9 0 21 -5 28 -12z"/>
<path d="M1790 1803 c-73 -38 -100 -124 -60 -191 57 -94 183 -94 240 0 68 112
-63 252 -180 191z m88 -95 c7 -7 12 -22 12 -35 0 -28 -36 -46 -62 -31 -34 17
-16 78 22 78 9 0 21 -5 28 -12z"/>
</g>
</svg>
