<?xml version="1.0" standalone="no"?>
<!DOCTYPE svg PUBLIC "-//W3C//DTD SVG 20010904//EN"
 "http://www.w3.org/TR/2001/REC-SVG-20010904/DTD/svg10.dtd">
<svg version="1.0" xmlns="http://www.w3.org/2000/svg"
 width="400.000000pt" height="400.000000pt" viewBox="0 0 400.000000 400.000000"
 preserveAspectRatio="xMidYMid meet">

<g transform="translate(0.000000,400.000000) scale(0.100000,-0.100000)"
fill="#ffffff" stroke="none">
<path d="M1610 3704 c-75 -35 -105 -66 -151 -156 -21 -42 -44 -80 -51 -85 -7
-4 -62 -8 -123 -8 -94 -1 -116 -4 -152 -23 -66 -35 -110 -78 -140 -140 -25
-52 -28 -66 -25 -155 1 -54 -3 -107 -8 -118 -6 -10 -44 -35 -84 -54 -108 -51
-171 -132 -183 -235 -8 -68 11 -133 63 -214 24 -38 44 -82 44 -96 0 -15 -13
-45 -29 -67 -62 -85 -76 -123 -75 -203 1 -124 56 -207 181 -269 85 -42 93 -56
91 -171 -2 -111 18 -169 80 h:\WTS Web Project\public\Assets\fast_deliver_img.svg-234 63 -66 120 -86 243 -86 122 0 123 0 169 -98
33 -70 81 -121 141 -149 104 -49 197 -39 306 33 37 24 79 44 94 44 14 0 56
-20 93 -44 110 -72 205 -83 303 -34 63 31 104 75 146 155 20 39 44 76 52 83
11 10 46 13 116 11 87 -2 106 1 153 22 65 30 116 79 147 143 20 43 23 62 22
149 -2 121 4 133 90 174 113 54 175 135 184 243 7 75 -10 135 -59 204 -58 84
-59 100 -4 186 25 39 51 90 57 113 25 92 -13 220 -84 282 -19 17 -64 45 -100
62 -37 17 -70 39 -76 49 -5 10 -9 65 -8 122 1 99 0 108 -28 158 -32 60 -75
101 -138 134 -36 19 -58 22 -152 23 -60 0 -116 4 -124 9 -7 5 -26 37 -42 72
-39 85 -82 132 -154 166 -46 21 -75 28 -123 28 -72 0 -114 -15 -185 -67 -68
-50 -104 -50 -173 0 -101 73 -205 87 -304 41z m185 -93 c22 -10 65 -35 95 -56
51 -35 59 -37 116 -33 52 3 71 10 125 46 85 57 127 69 187 53 59 -15 96 -50
134 -126 62 -123 98 -145 243 -145 119 0 144 -8 193 -64 38 -43 46 -80 37
-171 -11 -117 27 -180 140 -237 115 -58 140 -98 136 -214 -1 -20 -18 -57 -48
-100 -43 -62 -48 -75 -51 -134 -2 -54 1 -71 20 -102 80 -128 81 -129 81 -182
0 -88 -41 -140 -149 -186 -103 -43 -139 -109 -128 -231 10 -123 -21 -187 -111
-225 -31 -13 -56 -15 -121 -9 -131 11 -182 -20 -241 -143 -49 -102 -84 -127
-177 -127 -67 0 -75 2 -131 41 -117 80 -175 80 -289 1 -51 -37 -66 -42 -125
-45 -60 -3 -69 -1 -107 26 -29 21 -51 51 -78 105 -60 123 -115 153 -249 141
-107 -10 -168 19 -209 101 -18 34 -20 51 -14 120 10 140 -20 194 -140 252 -40
19 -84 48 -98 64 -25 29 -46 86 -46 122 0 27 27 87 67 144 64 93 61 163 -10
267 -25 36 -48 81 -51 100 -16 86 38 169 138 215 69 31 120 83 135 138 6 20 8
69 4 109 -7 89 -1 114 39 159 50 58 75 66 192 63 99 -3 105 -2 151 27 41 25
55 43 86 105 42 85 70 116 126 135 52 19 81 18 128 -4z"/>
<path d="M1795 3271 c-223 -59 -398 -182 -524 -370 -105 -158 -148 -322 -138
-529 18 -378 268 -686 644 -794 113 -33 333 -32 448 0 248 71 446 233 555 457
65 133 81 195 87 350 4 99 2 149 -11 209 -69 335 -323 596 -659 676 -110 27
-302 27 -402 1z m420 -111 c267 -85 452 -274 527 -537 28 -98 30 -281 5 -385
-91 -373 -455 -625 -835 -579 -321 39 -574 261 -658 577 -24 91 -25 283 -1
374 9 36 38 108 64 160 39 81 60 109 142 191 86 86 108 102 201 147 138 67
212 83 365 78 88 -3 139 -10 190 -26z"/>
<path d="M2385 2685 c-16 -9 -131 -117 -255 -240 -123 -124 -227 -225 -229
-225 -3 0 -66 61 -141 135 -137 135 -137 135 -184 135 -36 0 -52 -5 -71 -24
-29 -29 -40 -66 -30 -103 7 -31 332 -365 377 -389 15 -8 42 -14 60 -14 29 0
61 29 325 292 195 195 294 301 298 319 10 43 -19 97 -59 114 -44 18 -53 18
-91 0z"/>
<path d="M1121 1198 c-15 -35 -76 -165 -135 -290 -58 -126 -106 -241 -106
-257 0 -38 32 -77 70 -84 28 -6 108 19 375 117 38 14 77 26 86 26 12 0 35 -51
88 -197 40 -108 79 -209 87 -225 17 -32 42 -48 79 -48 61 0 60 -1 235 375 57
121 122 262 146 312 l43 93 -37 25 c-20 14 -41 25 -47 25 -6 0 -23 -28 -38
-62 -97 -221 -294 -630 -302 -627 -5 1 -42 93 -82 203 -73 205 -97 246 -142
246 -10 0 -112 -34 -226 -76 -114 -41 -209 -73 -212 -70 -3 3 53 130 125 283
72 152 128 281 126 285 -3 4 -28 8 -55 8 l-50 0 -28 -62z"/>
<path d="M2738 1255 c-3 -4 32 -88 79 -188 171 -363 183 -392 170 -395 -12 -2
-170 51 -330 112 -133 51 -146 40 -232 -194 -93 -256 -84 -236 -100 -219 -7 8
-48 90 -89 182 -42 93 -84 184 -94 204 l-19 35 -27 -64 -27 -64 91 -194 c51
-107 99 -203 108 -214 41 -45 120 -39 146 12 7 15 46 115 85 222 40 107 74
198 77 202 3 4 69 -16 147 -44 337 -120 303 -110 341 -94 43 18 59 47 53 95
-2 20 -65 164 -139 321 l-135 285 -49 3 c-28 2 -53 0 -56 -3z"/>
</g>
</svg>
