<?xml version="1.0" standalone="no"?>
<!DOCTYPE svg PUBLIC "-//W3C//DTD SVG 20010904//EN"
 "http://www.w3.org/TR/2001/REC-SVG-20010904/DTD/svg10.dtd">
<svg version="1.0" xmlns="http://www.w3.org/2000/svg"
 width="5060.000000pt" height="1942.000000pt" viewBox="0 0 5060.000000 1942.000000"
 preserveAspectRatio="xMidYMid meet">

<g transform="translate(0.000000,1942.000000) scale(0.100000,-0.100000)"
fill="#A5C9CA33" stroke="none">
<path d="M4925 16800 c-79 -9 -145 -38 -241 -106 -101 -71 -194 -190 -194
-248 0 -9 -10 -38 -22 -64 -17 -39 -21 -67 -22 -162 -1 -102 2 -120 22 -155
12 -22 22 -47 22 -56 0 -9 8 -27 18 -40 10 -13 27 -41 37 -62 19 -37 88 -108
150 -154 17 -13 42 -32 58 -44 l27 -20 0 -1118 0 -1118 41 -64 c22 -35 58 -82
80 -104 21 -23 63 -72 91 -111 29 -39 99 -128 156 -199 94 -117 108 -143 102
-185 -1 -8 -59 -71 -129 -141 -69 -70 -150 -152 -178 -183 -69 -74 -86 -74
-184 0 -41 31 -92 73 -115 94 -23 21 -77 64 -120 96 -43 32 -81 60 -84 63 -15
17 -161 131 -195 153 l-40 26 -1106 0 c-756 -1 -1112 2 -1125 10 -10 5 -37 36
-59 68 -39 57 -151 158 -190 170 -11 4 -36 17 -55 29 -54 35 -205 48 -350 30
-126 -15 -320 -159 -382 -285 -31 -63 -78 -230 -78 -275 1 -59 45 -229 66
-255 6 -8 19 -30 29 -49 39 -76 183 -204 253 -223 19 -5 47 -19 62 -29 24 -18
40 -20 176 -17 142 4 153 5 221 35 102 45 175 102 239 188 30 41 63 79 74 85
13 7 349 10 1049 8 l1029 -3 38 -31 c42 -33 179 -139 244 -189 169 -129 210
-170 210 -209 0 -7 -12 -31 -26 -52 -39 -57 -155 -279 -208 -395 -15 -35 -37
-81 -47 -101 -11 -20 -19 -45 -19 -55 0 -10 -8 -34 -19 -53 -10 -19 -22 -51
-26 -70 -4 -19 -17 -57 -30 -85 -12 -27 -25 -69 -29 -93 -3 -23 -15 -59 -26
-80 -13 -23 -20 -56 -20 -88 0 -28 -7 -69 -16 -89 -16 -38 -26 -89 -44 -220
-6 -38 -17 -106 -25 -150 -8 -44 -15 -96 -15 -116 0 -19 -5 -40 -12 -47 -9 -9
-248 -12 -1013 -12 l-1002 0 -20 23 c-11 12 -30 39 -42 59 -12 21 -51 63 -86
95 -72 66 -168 110 -300 138 -78 17 -84 17 -178 -3 -54 -11 -103 -25 -110 -30
-7 -6 -33 -19 -59 -29 -26 -10 -72 -40 -103 -67 -64 -55 -159 -194 -170 -246
-3 -19 -13 -53 -21 -76 -21 -55 -15 -211 10 -279 40 -108 52 -132 94 -183 86
-106 148 -151 277 -203 74 -29 83 -30 194 -27 94 2 125 7 161 25 25 11 56 24
70 28 54 16 202 146 235 206 8 15 30 36 50 48 l36 21 972 0 c1086 0 1017 5
1017 -68 0 -20 6 -71 14 -112 8 -41 24 -137 35 -212 11 -76 27 -154 36 -174 8
-20 15 -52 15 -71 0 -18 11 -60 25 -93 14 -33 25 -71 25 -84 0 -14 11 -51 25
-82 14 -31 25 -64 25 -73 0 -9 11 -37 25 -63 14 -26 25 -56 25 -67 0 -11 13
-46 28 -78 16 -32 37 -78 48 -101 10 -24 38 -81 62 -125 23 -45 54 -107 68
-137 14 -30 36 -68 48 -85 13 -16 28 -45 34 -63 17 -49 -11 -95 -99 -162 -40
-30 -86 -67 -103 -81 -17 -14 -87 -69 -155 -122 l-124 -97 -1037 0 c-1034 0
-1037 0 -1064 21 -14 11 -26 27 -26 35 0 23 -151 169 -195 189 -22 10 -47 24
-55 31 -8 6 -66 22 -128 35 -111 23 -113 23 -200 5 -131 -26 -257 -95 -335
-184 -48 -54 -107 -160 -107 -192 0 -10 -9 -39 -20 -65 -25 -58 -27 -180 -4
-240 9 -22 19 -56 23 -75 9 -42 58 -126 109 -187 43 -51 188 -153 220 -153 11
0 23 -4 26 -9 3 -5 38 -17 77 -26 81 -20 168 -16 240 10 24 9 59 20 77 25 71
18 213 134 266 219 48 76 -32 71 1196 70 l1099 -2 83 64 c46 35 125 97 177
139 52 41 122 97 155 123 67 52 145 114 188 149 36 29 60 18 135 -64 86 -92
245 -248 255 -248 4 0 19 -17 33 -39 18 -27 24 -46 20 -63 -4 -14 -44 -72 -91
-129 -100 -124 -75 -93 -215 -269 -63 -80 -127 -161 -142 -181 l-27 -36 -6
-1119 c-4 -666 -10 -1126 -16 -1137 -5 -9 -40 -40 -78 -68 -82 -60 -176 -179
-195 -247 -7 -26 -20 -60 -29 -77 -12 -22 -16 -57 -16 -130 0 -87 4 -113 31
-190 36 -104 87 -184 158 -248 92 -82 174 -119 333 -150 109 -21 308 36 407
117 96 78 184 206 200 293 5 26 14 61 20 76 6 16 11 53 11 82 0 61 -37 222
-56 245 -6 8 -19 31 -27 50 -21 49 -116 151 -181 194 -30 20 -57 44 -60 54 -4
14 -12 2044 -7 2078 0 6 52 75 114 152 61 77 139 175 172 218 113 148 132 158
200 104 21 -16 45 -30 53 -30 9 0 23 -6 31 -14 22 -19 196 -111 301 -158 25
-12 65 -31 90 -43 25 -13 61 -26 80 -30 19 -4 49 -15 65 -25 17 -9 46 -20 65
-24 19 -3 53 -15 75 -26 22 -11 65 -24 95 -30 29 -6 63 -16 75 -24 12 -8 52
-17 91 -21 38 -4 74 -11 79 -15 15 -11 99 -29 190 -40 44 -5 100 -14 125 -20
25 -6 85 -14 134 -19 69 -6 93 -12 104 -27 12 -16 14 -150 8 -997 -6 -1079 -3
-1025 -69 -1060 -18 -10 -51 -35 -73 -55 -79 -75 -113 -125 -159 -237 -36 -88
-37 -91 -33 -205 3 -100 7 -122 31 -173 15 -32 27 -62 27 -67 0 -19 93 -141
136 -179 66 -58 136 -95 243 -126 80 -23 106 -27 167 -21 40 3 90 12 111 20
21 8 51 17 67 21 53 11 163 84 211 137 78 89 126 181 147 283 11 50 17 110 14
135 -9 89 -27 176 -43 205 -9 17 -26 50 -38 75 -25 50 -147 176 -180 186 -11
4 -30 16 -42 27 l-23 20 0 1003 c0 809 2 1004 13 1012 7 6 33 14 57 17 76 9
181 27 257 41 40 8 89 14 110 14 21 1 56 8 78 16 22 9 72 22 110 29 39 7 90
20 115 28 25 8 74 25 110 37 36 12 88 28 115 36 28 8 64 21 82 29 17 8 34 15
38 15 18 0 312 138 405 190 19 11 40 20 46 20 6 0 19 9 29 20 10 11 24 20 32
20 7 0 32 13 55 30 44 32 74 37 101 18 9 -7 46 -52 84 -99 37 -48 115 -147
173 -220 58 -73 110 -142 117 -153 9 -16 12 -262 13 -1054 0 -1145 5 -1065
-65 -1098 -71 -33 -215 -203 -215 -253 0 -9 -9 -29 -20 -46 -18 -27 -20 -47
-20 -180 0 -128 3 -154 18 -180 10 -16 22 -43 26 -59 12 -50 103 -162 184
-225 28 -23 55 -41 58 -41 4 0 15 -6 23 -13 9 -7 54 -24 101 -38 332 -95 666
114 726 454 14 85 14 100 -1 194 -17 104 -47 178 -103 253 -35 48 -109 116
-154 142 -22 13 -41 33 -48 51 -7 20 -10 393 -10 1131 l0 1101 -27 40 c-14 22
-47 65 -73 95 -58 68 -125 152 -164 205 -17 22 -53 67 -81 100 -29 33 -66 80
-83 105 -18 25 -41 56 -53 71 -28 35 -15 62 62 129 35 30 75 67 89 81 14 14
65 67 113 118 49 51 100 96 113 101 36 14 62 0 182 -95 59 -47 131 -104 161
-128 29 -23 103 -83 165 -133 61 -49 125 -96 142 -103 24 -9 250 -12 1010 -12
538 0 1041 -2 1116 -5 l138 -7 32 -44 c64 -87 114 -136 187 -185 41 -26 83
-48 93 -48 10 0 38 -10 61 -22 36 -20 56 -23 147 -22 82 1 115 5 150 21 25 11
56 22 70 26 37 9 138 77 187 125 47 46 113 142 113 163 0 8 10 30 22 49 21 32
23 47 23 185 0 133 -2 155 -21 190 -11 22 -24 52 -27 67 -8 31 -74 118 -130
171 -67 63 -154 108 -256 133 -115 29 -146 30 -239 4 -39 -11 -82 -20 -94 -21
-13 0 -39 -11 -58 -25 -19 -13 -54 -37 -78 -53 -44 -30 -99 -89 -142 -151 -45
-66 36 -61 -1086 -61 -925 1 -1030 3 -1060 17 -19 9 -40 24 -47 33 -7 9 -23
24 -37 32 -14 9 -96 73 -184 143 -87 69 -162 126 -167 126 -5 0 -16 14 -25 31
-20 39 -13 84 21 134 14 20 32 51 40 68 8 18 30 59 50 92 20 33 41 71 47 85 5
14 19 43 29 66 11 23 19 45 19 51 0 5 11 24 24 42 13 18 27 49 31 69 4 20 15
51 26 68 10 17 19 40 19 50 0 11 9 35 19 55 11 20 23 54 27 75 4 22 17 60 30
85 12 25 26 75 30 110 4 35 14 74 22 87 8 12 18 55 23 95 5 40 17 106 29 147
11 41 20 95 20 120 0 25 5 87 12 139 11 81 16 96 37 110 23 14 118 16 1006 16
783 0 985 -3 1003 -13 12 -7 33 -30 46 -51 45 -71 206 -210 244 -211 7 0 35
-11 62 -25 45 -23 61 -25 170 -25 114 0 126 2 193 31 71 31 87 41 181 109 49
36 146 160 146 189 0 9 7 25 16 36 25 34 35 92 35 208 0 140 -25 226 -91 322
-95 137 -219 216 -390 250 -82 16 -89 16 -183 -4 -181 -37 -308 -119 -386
-249 -30 -50 -51 -61 -126 -64 -169 -7 -1922 3 -1934 11 -15 10 -25 69 -40
246 -5 55 -18 134 -30 175 -11 41 -21 92 -21 112 0 21 -9 61 -20 90 -11 29
-20 67 -20 83 0 17 -9 47 -20 68 -11 21 -25 61 -31 90 -6 28 -20 69 -30 89
-11 21 -19 45 -19 55 0 11 -9 36 -20 58 -11 21 -25 54 -31 74 -16 48 -144 311
-213 437 -31 56 -56 112 -56 126 0 31 23 62 74 101 24 18 98 77 165 132 206
168 215 175 251 185 22 6 405 10 1046 10 950 0 1013 -1 1031 -17 11 -10 50
-54 87 -99 74 -90 133 -133 240 -175 64 -26 83 -28 199 -29 105 0 134 3 165
19 20 10 50 21 66 25 62 15 189 120 249 206 17 25 44 81 59 124 25 71 28 94
28 203 0 101 -4 134 -21 181 -12 31 -23 67 -26 79 -3 13 -50 68 -104 123 -81
83 -110 106 -171 134 -132 60 -281 68 -443 23 -81 -22 -212 -128 -285 -230
-14 -19 -33 -40 -43 -47 -14 -8 -308 -11 -1132 -11 l-1113 1 -68 -54 c-38 -30
-114 -91 -169 -136 -55 -44 -131 -105 -170 -134 -38 -30 -92 -73 -120 -95 -75
-61 -110 -77 -142 -65 -15 5 -32 18 -38 29 -5 11 -83 92 -172 179 -143 140
-163 163 -163 191 0 20 8 39 21 51 12 10 39 42 60 69 55 72 165 214 198 255
16 19 54 67 85 105 31 39 70 87 87 108 l30 37 4 1127 3 1127 38 30 c90 69 200
191 228 251 86 188 64 442 -51 588 -57 74 -110 128 -138 143 -11 6 -29 15 -40
22 -11 6 -53 26 -94 44 -73 32 -79 33 -205 32 -122 -1 -135 -2 -183 -27 -29
-15 -61 -27 -71 -27 -58 0 -241 -188 -268 -275 -7 -24 -20 -55 -29 -68 -13
-20 -16 -54 -16 -181 0 -138 2 -160 19 -184 11 -15 23 -41 26 -58 12 -53 89
-147 180 -219 47 -38 86 -69 87 -69 0 -1 3 -435 6 -966 3 -604 1 -998 -5
-1053 l-10 -88 -59 -67 c-32 -37 -79 -96 -105 -132 -25 -36 -60 -81 -77 -100
-18 -19 -52 -63 -77 -98 -27 -36 -56 -65 -70 -68 -20 -5 -151 57 -304 145 -62
36 -252 125 -290 136 -14 4 -32 13 -40 20 -8 6 -37 18 -65 25 -27 7 -66 21
-85 30 -19 10 -56 20 -81 24 -26 4 -64 16 -85 26 -21 11 -55 20 -76 20 -21 0
-60 11 -87 25 -32 16 -79 28 -137 34 -49 6 -114 17 -144 26 -30 8 -90 15 -133
15 -84 0 -174 22 -194 48 -10 12 -13 228 -13 1000 l0 984 38 37 c20 20 57 50
82 67 30 20 68 64 113 130 65 96 68 103 84 199 22 131 21 156 -5 247 -32 114
-64 177 -115 233 -26 28 -47 53 -47 57 0 11 -111 84 -140 93 -14 4 -45 19 -70
33 -42 24 -51 25 -190 25 l-146 -1 -84 -40 c-47 -23 -111 -62 -143 -87 -63
-50 -151 -173 -162 -228 -4 -17 -16 -46 -26 -63 -16 -26 -19 -51 -19 -148 0
-107 3 -124 31 -198 41 -104 107 -198 178 -251 31 -23 68 -53 83 -67 l27 -25
3 -990 c2 -544 -1 -996 -5 -1003 -21 -32 -74 -45 -202 -53 -78 -4 -148 -14
-175 -24 -25 -9 -74 -18 -110 -21 -36 -3 -94 -16 -130 -29 -36 -13 -85 -26
-110 -29 -25 -3 -63 -14 -85 -26 -21 -11 -48 -20 -58 -20 -10 0 -49 -13 -87
-30 -38 -16 -76 -30 -86 -30 -9 0 -38 -10 -63 -21 -25 -12 -68 -32 -96 -44
-27 -13 -84 -38 -125 -56 -41 -18 -87 -40 -102 -51 -14 -10 -31 -18 -37 -18
-6 0 -44 -21 -84 -48 -156 -103 -179 -100 -274 29 -18 24 -79 102 -135 173
-57 71 -116 146 -133 168 l-30 40 -5 1031 c-3 568 -4 1037 -2 1043 2 6 28 28
57 49 30 20 85 70 122 109 91 97 149 228 159 357 5 73 3 92 -14 130 -10 24
-22 63 -26 87 -11 76 -44 127 -135 214 -65 63 -108 93 -171 125 -77 37 -94 42
-180 46 -52 3 -127 2 -165 -3z m185 -315 c7 -9 37 -27 66 -40 47 -21 56 -31
85 -90 30 -62 32 -69 26 -150 -6 -103 -29 -144 -116 -206 -52 -37 -57 -39
-133 -39 -69 0 -85 4 -134 31 -68 39 -100 78 -131 159 -30 80 -29 102 5 175
39 82 76 123 122 135 21 6 43 17 50 25 18 21 143 21 160 0z m2690 -31 c48 -31
80 -61 100 -92 27 -43 30 -54 30 -142 l0 -95 -57 -62 c-76 -82 -119 -103 -206
-103 -87 0 -128 20 -204 99 -18 19 -33 42 -33 50 0 9 -9 30 -20 46 -29 44 -25
93 14 171 37 76 46 86 126 138 48 32 62 36 117 36 57 0 68 -4 133 -46z m2623
9 c24 -21 58 -45 74 -54 42 -23 83 -109 83 -175 0 -89 -32 -145 -128 -226 -56
-48 -56 -48 -130 -48 -60 0 -82 5 -120 26 -53 29 -92 62 -92 78 0 6 -15 30
-34 54 -19 23 -37 58 -40 77 -8 42 9 110 35 143 10 14 19 30 19 37 0 15 62 72
94 86 11 5 32 16 46 24 14 9 51 15 87 15 57 0 65 -3 106 -37z m-2543 -3313
c58 -6 141 -16 185 -22 44 -5 94 -12 112 -14 17 -1 73 -13 125 -24 51 -12 116
-26 143 -32 28 -5 73 -18 100 -29 28 -10 60 -19 73 -19 12 0 50 -13 84 -29 35
-16 79 -32 99 -35 21 -4 42 -13 49 -21 6 -7 26 -17 43 -21 18 -4 112 -48 210
-98 207 -105 211 -108 234 -128 10 -9 32 -23 50 -32 17 -8 70 -45 117 -81 47
-36 89 -65 94 -65 5 0 30 -19 55 -42 25 -24 91 -83 147 -133 185 -163 417
-441 522 -625 23 -41 51 -84 63 -96 11 -11 31 -45 45 -75 14 -29 39 -80 57
-111 18 -31 33 -59 33 -63 0 -6 27 -68 76 -171 13 -28 24 -59 24 -68 0 -9 9
-36 20 -60 32 -71 78 -204 73 -210 -7 -7 15 -102 35 -151 9 -22 19 -78 22
-125 4 -47 16 -125 28 -175 19 -80 21 -123 22 -395 0 -274 -2 -315 -21 -405
-11 -55 -24 -136 -29 -180 -4 -44 -14 -105 -23 -135 -8 -30 -25 -89 -36 -130
-37 -133 -60 -208 -69 -227 -5 -10 -24 -56 -42 -103 -35 -91 -183 -395 -204
-420 -7 -8 -24 -35 -37 -60 -13 -25 -38 -63 -54 -85 -17 -22 -37 -53 -45 -68
-8 -16 -23 -39 -35 -51 -11 -12 -57 -69 -103 -126 -90 -113 -341 -373 -401
-414 -20 -14 -49 -38 -66 -54 -67 -62 -228 -176 -315 -223 -25 -13 -63 -37
-86 -54 -77 -57 -431 -223 -534 -250 -14 -3 -34 -10 -45 -15 -60 -25 -108 -40
-129 -40 -14 0 -45 -9 -71 -20 -26 -11 -61 -20 -78 -20 -18 0 -66 -10 -107
-21 -148 -40 -287 -51 -630 -51 -334 1 -486 11 -560 40 -14 5 -63 15 -110 22
-47 7 -106 21 -132 31 -26 10 -58 19 -72 19 -15 0 -34 4 -44 9 -9 5 -46 19
-82 31 -163 56 -194 69 -370 154 -156 76 -207 104 -307 169 -39 26 -75 47 -80
47 -4 0 -24 15 -43 33 -19 19 -55 47 -80 63 -60 39 -74 50 -139 110 -31 28
-72 64 -91 80 -80 65 -330 329 -354 372 -5 9 -31 44 -56 77 -47 60 -145 202
-166 240 -6 11 -20 36 -32 55 -73 121 -181 348 -198 414 -4 16 -17 48 -30 70
-13 23 -24 51 -24 64 0 12 -8 39 -19 60 -10 20 -24 62 -31 92 -7 30 -19 70
-26 89 -8 18 -19 66 -24 105 -5 40 -14 85 -21 102 -13 31 -22 124 -40 397 -16
242 9 697 45 816 9 30 16 70 16 88 0 18 9 56 20 85 11 29 20 69 20 88 0 19 9
50 21 69 11 18 27 60 35 93 9 33 24 75 35 92 10 17 19 38 19 48 0 9 20 54 44
100 24 45 46 95 50 110 3 15 22 54 41 87 19 33 35 62 35 65 0 3 18 33 40 67
22 34 40 66 40 71 0 4 28 46 63 92 34 46 80 110 102 141 22 32 63 81 90 110
28 29 81 89 119 134 69 80 264 263 288 270 7 2 36 25 63 50 28 26 75 65 105
86 97 69 214 145 222 145 4 0 26 13 50 29 66 44 288 157 354 180 97 33 137 48
198 75 32 14 67 26 78 26 10 0 36 9 57 20 22 11 63 21 93 24 29 2 71 12 93 22
41 18 53 20 285 48 74 9 164 20 200 25 96 12 310 13 430 1z m-6308 -272 c63
-34 80 -52 123 -137 36 -72 32 -132 -16 -225 -32 -64 -39 -70 -108 -107 -95
-52 -165 -56 -225 -15 -21 14 -46 26 -56 26 -19 0 -60 43 -87 92 -14 25 -18
55 -18 128 0 124 21 166 115 228 61 40 68 42 138 42 64 0 82 -4 134 -32z
m12418 17 c27 -14 54 -36 107 -87 33 -30 73 -124 73 -168 0 -128 -148 -270
-280 -270 -68 0 -153 45 -211 112 -44 51 -47 58 -50 118 -6 140 -6 141 69 215
37 37 81 74 97 81 42 18 159 18 195 -1z m1 -2616 c120 -41 198 -161 199 -305
0 -54 -4 -68 -39 -120 -57 -88 -112 -129 -204 -154 -91 -24 -183 7 -265 90
-78 79 -84 97 -80 218 l3 110 50 58 c69 81 136 113 231 114 39 0 86 -5 105
-11z m-12433 -36 c64 -31 128 -102 146 -162 9 -30 16 -70 16 -88 0 -42 -43
-149 -73 -181 -31 -34 -158 -92 -199 -92 -42 0 -174 59 -205 92 -42 44 -63
107 -63 190 0 42 4 88 9 101 14 37 70 97 120 129 40 25 54 28 129 28 59 0 95
-5 120 -17z m12417 -2634 c99 -27 195 -156 195 -260 0 -60 -42 -147 -93 -197
-42 -40 -125 -72 -188 -72 -70 0 -153 39 -167 78 -5 16 -26 39 -46 51 -47 29
-60 77 -50 180 7 75 7 76 63 134 83 85 181 115 286 86z m-12431 -9 c59 -13
130 -89 156 -164 25 -75 25 -90 -2 -171 -25 -79 -79 -133 -164 -165 -70 -26
-109 -25 -181 1 -122 46 -182 145 -170 285 8 100 79 195 161 215 44 10 154 10
200 -1z m3573 -3582 c50 -16 73 -31 105 -67 56 -63 68 -97 68 -188 0 -98 -20
-143 -88 -205 -46 -40 -59 -47 -112 -53 -33 -4 -88 -4 -122 0 -55 7 -67 12
-111 54 -90 84 -119 194 -80 303 32 89 151 176 242 177 19 1 63 -9 98 -21z
m2608 8 c11 -7 34 -16 51 -20 44 -10 101 -61 129 -117 21 -40 25 -63 25 -131
0 -91 -5 -103 -69 -171 -67 -71 -95 -82 -198 -81 -82 1 -96 4 -132 27 -53 35
-87 79 -116 152 -31 74 -31 85 -2 158 34 90 88 144 172 172 81 28 113 30 140
11z m2660 -7 c67 -23 144 -89 176 -151 21 -42 25 -121 9 -180 -14 -49 -65
-115 -119 -153 -41 -28 -48 -30 -141 -30 -93 0 -101 2 -141 30 -23 17 -54 49
-68 71 -14 23 -35 54 -46 70 -33 46 -27 125 15 203 39 72 77 106 152 138 67
28 89 28 163 2z"/>
<path d="M5340 11775 c-10 -12 -11 -24 -2 -53 7 -20 35 -134 63 -252 27 -118
65 -278 84 -355 67 -274 105 -432 140 -585 20 -85 42 -180 50 -210 8 -30 24
-95 35 -145 12 -49 28 -115 36 -145 7 -30 30 -122 49 -205 68 -293 116 -491
141 -590 14 -55 32 -127 39 -160 24 -110 78 -333 150 -630 29 -121 81 -339
115 -485 35 -146 68 -268 74 -272 6 -4 193 -7 415 -5 347 2 405 4 411 17 9 16
17 51 85 375 25 116 49 228 54 250 6 22 17 76 26 120 10 44 24 107 32 140 8
33 18 80 23 105 4 25 18 88 29 140 12 52 37 167 56 255 19 88 43 203 55 255
42 191 95 483 111 610 17 138 49 143 63 10 4 -36 15 -110 26 -165 10 -55 21
-111 23 -125 3 -14 21 -101 42 -195 20 -93 52 -242 70 -330 18 -88 45 -216 60
-285 15 -69 31 -146 35 -171 5 -25 13 -64 19 -85 5 -21 20 -84 31 -139 12 -55
28 -129 36 -165 8 -36 37 -175 65 -310 28 -135 54 -258 58 -275 l7 -30 413 -3
c273 -1 418 1 426 8 7 6 17 29 23 53 15 60 60 252 112 472 40 174 90 380 100
415 5 19 33 134 61 255 27 121 70 301 94 400 24 99 61 250 81 335 110 469 169
716 189 790 8 30 33 136 55 235 23 99 47 205 55 235 24 95 82 339 120 500 20
85 48 199 61 252 28 113 30 144 8 152 -9 3 -209 6 -445 6 l-429 0 -14 -23 c-8
-12 -22 -60 -31 -107 -8 -47 -24 -128 -35 -180 -31 -144 -45 -211 -79 -380
-49 -248 -108 -531 -142 -688 -5 -23 -20 -98 -33 -165 -29 -149 -21 -112 -96
-467 -33 -162 -63 -311 -66 -330 -10 -68 -15 -80 -29 -80 -8 0 -17 10 -20 23
-6 28 -64 332 -71 372 -3 17 -9 48 -14 70 -5 22 -21 101 -35 175 -14 74 -30
153 -35 175 -5 22 -37 182 -70 355 -65 332 -135 688 -150 755 -11 48 -76 385
-85 437 -3 22 -14 42 -25 48 -12 6 -161 10 -398 10 -437 0 -404 8 -422 -105
-6 -39 -18 -101 -26 -140 -8 -38 -21 -106 -30 -150 -8 -44 -22 -109 -29 -145
-8 -36 -23 -117 -35 -180 -12 -63 -28 -146 -36 -185 -7 -38 -27 -144 -44 -235
-17 -91 -42 -219 -55 -285 -22 -109 -88 -451 -150 -775 -13 -69 -26 -147 -30
-175 -12 -88 -48 -98 -59 -17 -4 26 -15 88 -26 137 -11 50 -35 169 -55 265
-33 159 -83 393 -120 560 -24 109 -33 150 -60 280 -14 69 -34 166 -45 215 -42
196 -91 423 -105 485 -18 79 -59 273 -76 355 -21 103 18 95 -464 95 -368 0
-424 -2 -435 -15z"/>
<path d="M5566 15077 c-17 -12 -18 -51 -17 -678 1 -365 1 -671 1 -680 0 -21
127 -185 175 -227 39 -35 60 -33 113 8 13 11 29 20 35 20 9 0 106 45 272 126
28 13 56 24 63 24 7 0 35 11 62 25 27 14 64 25 82 25 18 0 51 11 73 25 22 13
54 25 70 25 17 0 48 9 71 19 23 10 61 22 85 26 24 4 76 18 114 31 39 13 90 24
115 24 45 -1 205 34 246 53 21 9 22 17 29 236 4 124 5 376 3 559 -5 301 -7
335 -23 352 -18 20 -35 20 -785 20 -614 0 -770 -3 -784 -13z"/>
<path d="M8202 15078 c-9 -9 -12 -151 -12 -580 0 -551 1 -568 19 -578 11 -5
31 -10 44 -10 14 0 41 -7 61 -15 20 -8 71 -18 113 -21 43 -3 98 -14 123 -24
25 -10 72 -23 105 -30 33 -7 81 -21 107 -31 26 -10 60 -19 76 -19 16 0 55 -11
86 -25 31 -14 63 -25 72 -25 8 0 37 -11 64 -25 27 -14 55 -25 61 -25 17 0 114
-43 286 -126 83 -41 161 -74 172 -74 14 0 41 25 82 78 33 42 67 85 75 95 9 11
24 33 35 50 18 31 19 59 19 698 0 632 -1 667 -18 682 -17 16 -86 17 -788 17
-586 0 -773 -3 -782 -12z"/>
<path d="M4370 14768 c-41 -23 -112 -61 -157 -84 -103 -55 -132 -74 -333 -215
-126 -89 -155 -114 -310 -264 -127 -123 -247 -254 -315 -344 -27 -36 -58 -75
-68 -86 -10 -11 -28 -37 -40 -59 -29 -51 -36 -62 -74 -118 -18 -26 -33 -50
-33 -54 0 -4 -6 -15 -14 -23 -12 -14 -31 -49 -112 -206 -6 -11 -17 -33 -26
-50 -8 -16 -21 -40 -28 -52 -11 -17 -12 -25 -3 -34 9 -9 191 -11 700 -10 379
0 703 -3 720 -8 44 -13 228 -136 299 -201 83 -75 241 -190 261 -190 19 0 73
48 73 65 0 6 -12 22 -26 36 -14 13 -44 51 -67 84 -22 33 -72 98 -111 145 -39
47 -80 98 -90 115 -11 16 -30 41 -44 55 -59 61 -57 31 -59 803 -1 390 -4 715
-7 723 -9 25 -59 15 -136 -28z"/>
<path d="M10835 14778 c-3 -18 -5 -332 -3 -698 l3 -665 -33 -75 c-18 -41 -48
-93 -68 -115 -20 -22 -68 -81 -107 -131 -40 -50 -98 -123 -129 -162 -63 -77
-71 -109 -38 -142 41 -41 42 -40 326 189 5 4 30 21 54 37 24 16 59 45 77 65
18 20 58 47 90 60 l58 24 695 2 c382 2 701 5 707 8 7 2 13 11 13 19 0 25 -135
277 -228 427 -39 63 -154 222 -172 239 -3 3 -17 21 -30 40 -43 61 -262 296
-354 378 -70 63 -325 257 -395 301 -39 24 -76 50 -82 58 -6 7 -18 13 -26 13
-9 0 -52 23 -98 50 -46 28 -89 50 -96 50 -8 0 -36 14 -64 30 -68 40 -92 39
-100 -2z"/>
<path d="M16755 11805 c-154 -426 -281 -772 -283 -771 -2 2 -113 298 -247 657
l-243 654 -251 3 -251 2 19 -47 c10 -27 224 -603 476 -1281 252 -678 462
-1229 466 -1225 3 5 141 353 305 775 164 422 299 767 300 765 1 -1 138 -346
304 -767 166 -421 305 -768 309 -772 4 -5 213 547 466 1225 252 677 467 1253
477 1280 l18 47 -252 -2 -252 -3 -240 -653 c-212 -576 -241 -650 -252 -630 -6
13 -138 356 -294 763 -155 407 -285 743 -289 747 -3 3 -132 -342 -286 -767z"/>
<path d="M21600 11261 l0 -1271 250 0 250 0 0 703 0 702 43 -45 c23 -25 354
-379 735 -788 l692 -743 0 1266 0 1265 -245 0 -245 0 -2 -668 -3 -668 -625
643 c-344 353 -676 694 -737 759 l-113 116 0 -1271z"/>
<path d="M28250 11261 l0 -1271 250 0 250 0 0 703 0 702 43 -45 c23 -25 354
-379 735 -788 l692 -743 0 1266 0 1265 -245 0 -245 0 -2 -668 -3 -668 -625
643 c-344 353 -676 694 -737 759 l-113 116 0 -1271z"/>
<path d="M44016 12492 c-30 -61 -1106 -2372 -1137 -2439 l-28 -63 263 0 262 0
130 288 130 287 399 0 400 0 126 -285 127 -285 266 -3 267 -2 -15 27 c-7 16
-273 586 -591 1268 -317 682 -578 1241 -579 1242 -1 2 -10 -14 -20 -35z m131
-1262 l99 -225 -103 -3 c-57 -1 -150 -1 -207 0 l-105 3 102 232 c56 128 105
229 109 225 3 -4 51 -108 105 -232z"/>
<path d="M26060 11257 l0 -1267 250 0 250 0 2 417 3 416 224 -389 c124 -214
232 -402 242 -417 l16 -28 244 423 244 423 3 -422 2 -423 245 0 245 0 0 1267
0 1267 -323 -549 c-177 -303 -397 -677 -487 -832 -91 -155 -169 -281 -173
-280 -5 1 -226 373 -492 825 -266 453 -486 826 -489 829 -3 4 -6 -564 -6
-1260z"/>
<path d="M20010 12398 c-368 -26 -709 -221 -929 -531 -64 -92 -147 -269 -175
-378 -99 -383 -17 -780 222 -1081 325 -407 881 -576 1378 -417 204 65 368 163
514 309 188 187 302 403 347 655 20 117 20 315 0 431 -67 377 -316 708 -665
883 -212 106 -431 147 -692 129z m286 -478 c221 -56 396 -198 499 -406 60
-121 78 -214 73 -378 -6 -162 -29 -252 -95 -366 -104 -178 -331 -335 -538
-371 -194 -34 -444 44 -603 186 -111 100 -203 257 -237 405 -24 106 -22 272 4
375 104 401 510 653 897 555z"/>
<path d="M37584 12400 c-355 -37 -634 -335 -634 -677 0 -216 77 -356 285 -518
104 -81 174 -123 400 -241 274 -143 320 -192 313 -329 -4 -95 -40 -155 -117
-198 -47 -27 -67 -32 -144 -35 -165 -8 -257 31 -327 140 -22 33 -50 88 -61
120 -12 32 -24 58 -28 58 -3 0 -67 -53 -141 -117 -75 -65 -155 -135 -179 -155
l-43 -36 42 -81 c96 -185 276 -324 495 -382 93 -25 261 -29 365 -10 304 56
536 238 616 483 24 74 28 99 28 223 1 121 -2 150 -23 215 -12 41 -30 89 -38
105 -63 124 -241 263 -588 460 -284 161 -349 223 -348 331 1 167 224 269 378
174 33 -21 141 -130 165 -168 l15 -24 155 137 c85 76 161 142 167 149 33 30
-148 228 -264 289 -81 42 -192 75 -283 82 -36 3 -81 7 -100 9 -19 2 -67 0
-106 -4z"/>
<path d="M41440 12398 c-325 -20 -591 -138 -810 -358 -289 -289 -408 -716
-320 -1149 47 -233 161 -458 314 -619 148 -156 383 -273 641 -318 138 -24 414
-23 549 1 344 60 580 228 716 509 84 173 92 218 97 534 l5 272 -506 0 -506 0
0 -220 0 -220 265 0 265 0 0 -28 c0 -41 -28 -130 -56 -178 -54 -91 -171 -173
-300 -209 -93 -26 -312 -31 -414 -11 -317 64 -526 289 -576 619 -51 333 66
632 311 796 126 84 257 121 428 121 210 -1 337 -51 481 -191 l92 -88 181 137
c100 75 182 139 182 142 1 3 -37 46 -83 96 -258 278 -550 388 -956 362z"/>
<path d="M23800 11169 l0 -1181 513 5 c555 5 634 11 792 63 344 114 587 381
680 749 65 254 54 580 -26 819 -102 305 -297 519 -575 633 -188 76 -359 93
-955 93 l-429 0 0 -1181z m1055 702 c123 -25 186 -60 270 -145 84 -86 128
-164 162 -293 23 -86 26 -117 26 -258 0 -140 -3 -172 -25 -256 -35 -131 -76
-206 -158 -292 -135 -142 -216 -167 -582 -174 l-258 -6 0 728 0 728 238 -6
c175 -5 261 -11 327 -26z"/>
<path d="M30450 11170 l0 -1180 690 0 690 0 -2 228 -3 227 -443 3 -442 2 2
293 3 292 443 3 442 2 0 225 0 225 -445 0 -445 0 0 210 0 210 443 2 442 3 3
218 2 217 -690 0 -690 0 0 -1180z"/>
<path d="M32040 11170 l0 -1180 245 0 245 0 2 543 3 542 483 3 482 2 0 -545 0
-545 250 0 250 0 0 1180 0 1180 -250 0 -250 0 0 -410 0 -410 -485 0 -485 0 0
410 0 410 -245 0 -245 0 0 -1180z"/>
<path d="M35105 12338 c-15 -47 -92 -414 -89 -420 3 -5 135 -8 295 -8 l289 0
0 -960 0 -960 250 0 250 0 0 960 0 960 289 0 c160 0 292 3 295 8 2 4 -17 102
-43 217 l-48 210 -742 3 c-588 2 -742 0 -746 -10z"/>
<path d="M38680 11170 l0 -1180 690 0 690 0 -2 228 -3 227 -443 3 -442 2 2
293 3 292 443 3 442 2 0 225 0 225 -445 0 -445 0 0 210 0 210 443 2 442 3 3
218 2 217 -690 0 -690 0 0 -1180z"/>
<path d="M45450 12344 c0 -4 180 -296 400 -649 l400 -643 0 -531 0 -531 245 0
245 0 0 538 0 537 405 638 c223 352 405 641 405 643 0 2 -116 4 -257 4 l-258
-1 -230 -360 c-126 -198 -247 -387 -268 -420 l-38 -60 -261 420 -260 421 -264
0 c-145 0 -264 -3 -264 -6z"/>
<path d="M47770 11170 l0 -1180 690 0 690 0 -2 228 -3 227 -443 3 -442 2 2
293 3 292 443 3 442 2 0 225 0 225 -445 0 -445 0 0 210 0 210 443 2 442 3 3
218 2 217 -690 0 -690 0 0 -1180z"/>
<path d="M2616 12104 c-9 -8 -16 -18 -16 -22 -5 -107 -1 -1543 4 -1551 5 -8
158 -11 571 -11 473 0 566 2 578 14 9 9 16 47 20 103 4 48 16 115 27 147 11
33 20 72 20 88 0 35 20 119 31 134 5 6 15 42 23 80 8 38 24 91 35 118 12 26
21 57 21 69 0 12 9 39 20 60 11 20 20 43 20 51 0 15 48 126 86 197 13 26 24
56 24 67 0 11 7 25 15 32 8 7 20 31 26 53 6 22 21 55 35 72 13 17 30 48 39 69
l16 37 -33 31 c-52 49 -167 141 -197 158 -22 13 -121 15 -688 18 -594 2 -663
1 -677 -14z"/>
<path d="M11359 12097 c-19 -12 -42 -28 -50 -34 -7 -7 -47 -38 -86 -68 -40
-31 -77 -64 -82 -74 -8 -14 2 -42 41 -122 28 -57 63 -131 79 -164 15 -33 39
-85 53 -116 14 -31 26 -62 26 -69 0 -7 9 -27 19 -44 11 -17 23 -49 27 -71 4
-22 16 -60 26 -85 11 -24 24 -67 30 -95 5 -27 16 -60 24 -72 7 -12 18 -51 24
-88 6 -37 18 -81 26 -97 8 -16 19 -64 24 -106 10 -82 43 -243 54 -261 11 -16
1128 -15 1144 1 9 9 12 197 12 784 l0 773 -22 15 c-20 14 -100 16 -678 16
l-655 -1 -36 -22z"/>
<path d="M2627 9471 c-6 -2 -16 -11 -21 -20 -6 -10 -9 -316 -8 -786 2 -687 4
-771 18 -782 12 -9 182 -11 684 -10 l668 2 49 45 c26 25 77 67 111 93 35 26
66 55 69 63 3 9 -20 67 -56 138 -34 66 -61 126 -61 132 0 6 -11 27 -24 47 -13
19 -27 50 -31 68 -4 19 -14 43 -21 54 -14 22 -55 134 -79 222 -9 28 -24 71
-35 95 -11 23 -20 57 -20 74 0 18 -11 62 -25 98 -14 37 -25 79 -25 95 0 16 -9
58 -20 93 -11 34 -23 103 -27 151 -10 140 53 127 -586 129 -301 2 -553 1 -560
-1z"/>
<path d="M12138 9473 l-528 -3 -14 -23 c-16 -23 -41 -136 -51 -227 -4 -30 -15
-82 -25 -115 -11 -33 -24 -89 -30 -124 -6 -35 -18 -73 -25 -85 -8 -12 -17 -41
-21 -66 -4 -25 -18 -69 -31 -98 -13 -29 -23 -60 -23 -70 0 -9 -12 -39 -25 -67
-14 -27 -25 -55 -25 -61 0 -26 -133 -312 -182 -393 -16 -25 -28 -49 -28 -53 0
-10 58 -68 68 -68 4 0 21 -12 37 -28 17 -15 57 -47 90 -72 l60 -45 667 0 c534
0 670 3 680 13 10 10 14 167 16 781 l3 769 -27 21 c-15 11 -34 20 -43 19 -9
-2 -253 -4 -543 -5z"/>
<path d="M19495 9094 c-88 -19 -234 -89 -304 -147 -107 -89 -187 -211 -231
-352 -32 -102 -38 -261 -15 -371 43 -208 193 -394 390 -489 124 -60 176 -70
335 -69 117 1 145 4 215 27 202 67 384 237 455 424 52 136 62 316 25 458 -53
208 -234 410 -433 485 -131 49 -300 62 -437 34z m335 -143 c193 -61 346 -219
394 -407 9 -36 16 -103 16 -159 0 -56 -7 -123 -16 -159 -78 -302 -385 -487
-697 -421 -196 41 -374 210 -433 410 -24 82 -24 249 0 330 63 212 223 367 433
420 78 20 218 13 303 -14z"/>
<path d="M27595 9094 c-88 -19 -234 -89 -304 -147 -107 -89 -187 -211 -231
-352 -32 -102 -38 -261 -15 -371 43 -208 193 -394 390 -489 124 -60 176 -70
335 -69 117 1 145 4 215 27 202 67 384 237 455 424 52 136 62 316 25 458 -53
208 -234 410 -433 485 -131 49 -300 62 -437 34z m335 -143 c193 -61 346 -219
394 -407 9 -36 16 -103 16 -159 0 -56 -7 -123 -16 -159 -78 -302 -385 -487
-697 -421 -196 41 -374 210 -433 410 -24 82 -24 249 0 330 63 212 223 367 433
420 78 20 218 13 303 -14z"/>
<path d="M39810 9097 c-237 -67 -312 -349 -144 -537 22 -24 102 -94 179 -155
265 -212 330 -310 291 -438 -20 -66 -54 -107 -117 -142 -45 -25 -65 -30 -124
-30 -58 0 -78 5 -117 27 -52 31 -107 90 -146 158 -14 25 -26 46 -27 48 -4 6
-115 -64 -115 -72 0 -22 86 -140 135 -185 187 -170 474 -140 609 64 51 76 73
168 58 246 -27 145 -107 245 -345 426 -188 144 -227 194 -227 293 0 82 46 144
126 170 87 29 189 -11 269 -105 l47 -54 54 41 c30 22 54 44 54 47 0 22 -138
144 -194 171 -75 37 -190 49 -266 27z"/>
<path d="M15620 8385 l0 -695 70 0 70 0 0 695 0 695 -70 0 -70 0 0 -695z"/>
<path d="M16200 9072 c0 -5 -43 -309 -95 -678 -52 -368 -95 -677 -95 -686 0
-15 10 -18 64 -18 l64 0 5 33 c4 17 34 237 67 487 33 250 62 460 64 465 2 6
114 -214 249 -487 197 -399 249 -498 265 -498 15 0 42 48 130 228 286 588 376
766 379 752 4 -22 133 -961 133 -971 0 -5 32 -9 71 -9 l71 0 -6 28 c-3 15 -46
315 -96 667 -103 730 -98 695 -114 695 -7 0 -136 -254 -287 -565 -151 -310
-277 -564 -280 -565 -3 0 -131 254 -284 565 -238 482 -305 604 -305 557z"/>
<path d="M17850 8385 l0 -695 70 0 70 0 0 320 0 320 138 0 c282 0 389 27 483
119 74 73 99 138 99 256 0 111 -26 181 -92 251 -97 103 -189 124 -550 124
l-218 0 0 -695z m595 520 c47 -24 66 -41 90 -79 26 -43 30 -59 30 -121 0 -98
-35 -156 -120 -200 -58 -30 -59 -30 -257 -33 l-198 -4 0 237 0 237 198 -3
c196 -4 197 -4 257 -34z"/>
<path d="M20680 8385 l0 -695 70 0 70 0 0 320 0 320 38 0 c37 -1 39 -3 285
-320 l248 -320 85 0 c51 0 83 4 79 10 -3 5 -114 148 -246 317 l-240 308 78 8
c160 15 259 62 330 155 47 62 66 137 61 242 -5 106 -36 177 -104 240 -100 92
-188 110 -536 110 l-218 0 0 -695z m592 522 c135 -66 168 -236 67 -350 -63
-72 -93 -80 -321 -85 l-198 -4 0 237 0 237 198 -3 c192 -4 198 -5 254 -32z"/>
<path d="M21700 9010 l0 -70 155 0 155 0 0 -625 0 -625 70 0 70 0 0 625 0 625
155 0 155 0 0 70 0 70 -380 0 -380 0 0 -70z"/>
<path d="M23740 8385 l0 -695 395 0 395 0 0 70 0 70 -325 0 -325 0 0 270 0
270 325 0 325 0 0 70 0 70 -325 0 -325 0 0 215 0 215 325 0 325 0 0 70 0 70
-395 0 -395 0 0 -695z"/>
<path d="M24700 9076 c0 -3 90 -151 200 -331 110 -179 201 -329 203 -333 1 -5
-96 -167 -215 -360 -120 -194 -218 -355 -218 -357 0 -3 36 -5 79 -5 l79 0 178
290 c98 160 181 290 184 290 3 -1 83 -129 179 -286 96 -157 180 -288 186 -290
7 -3 44 -4 83 -2 l71 3 -220 356 -219 357 194 315 c107 173 199 324 205 336
11 21 10 21 -67 21 l-79 0 -163 -265 c-90 -146 -167 -265 -171 -265 -3 0 -79
119 -169 265 l-162 265 -79 0 c-43 0 -79 -2 -79 -4z"/>
<path d="M25950 8385 l0 -695 70 0 70 0 0 320 0 320 138 0 c282 0 389 27 483
119 74 73 99 138 99 256 0 111 -26 181 -92 251 -97 103 -189 124 -550 124
l-218 0 0 -695z m595 520 c47 -24 66 -41 90 -79 26 -43 30 -59 30 -121 0 -98
-35 -156 -120 -200 -58 -30 -59 -30 -257 -33 l-198 -4 0 237 0 237 198 -3
c196 -4 197 -4 257 -34z"/>
<path d="M28780 8385 l0 -695 70 0 70 0 0 320 0 320 38 0 c37 -1 39 -3 285
-320 l248 -320 85 0 c51 0 83 4 79 10 -3 5 -114 148 -246 317 l-240 308 78 8
c160 15 259 62 330 155 47 62 66 137 61 242 -5 106 -36 177 -104 240 -100 92
-188 110 -536 110 l-218 0 0 -695z m592 522 c135 -66 168 -236 67 -350 -63
-72 -93 -80 -321 -85 l-198 -4 0 237 0 237 198 -3 c192 -4 198 -5 254 -32z"/>
<path d="M29800 9010 l0 -70 155 0 155 0 0 -625 0 -625 70 0 70 0 0 625 0 625
155 0 155 0 0 70 0 70 -380 0 -380 0 0 -70z"/>
<path d="M33801 9018 c-16 -35 -160 -342 -321 -683 -160 -341 -294 -626 -297
-633 -4 -10 12 -12 73 -10 l78 3 105 223 105 222 301 0 302 0 106 -222 106
-223 76 -3 c70 -3 75 -1 67 15 -5 10 -150 323 -323 696 -246 531 -317 677
-332 677 -12 0 -27 -19 -46 -62z m168 -492 c62 -131 110 -240 108 -242 -2 -3
-108 -3 -234 -2 l-230 3 116 247 c63 136 119 244 122 240 4 -4 57 -114 118
-246z"/>
<path d="M34730 8384 l0 -696 318 4 c283 4 325 7 394 26 177 48 293 144 377
311 53 105 73 198 73 341 0 222 -59 377 -192 511 -158 159 -308 198 -752 199
l-218 0 0 -696z m480 545 c196 -18 311 -67 409 -175 92 -100 134 -224 134
-390 -1 -211 -91 -377 -253 -463 -91 -48 -168 -61 -417 -68 l-223 -6 0 556 0
557 118 0 c64 0 169 -5 232 -11z"/>
<path d="M36170 8385 l0 -695 395 0 395 0 0 70 0 70 -325 0 -325 0 0 270 0
270 325 0 325 0 0 70 0 70 -325 0 -325 0 0 215 0 215 325 0 325 0 0 70 0 70
-395 0 -395 0 0 -695z"/>
<path d="M37210 8385 l0 -695 70 0 70 0 0 320 0 320 38 0 c37 -1 39 -3 285
-320 l248 -320 85 0 c51 0 83 4 79 10 -3 5 -114 148 -246 317 l-240 308 78 8
c160 15 259 62 330 155 47 62 66 137 61 242 -5 106 -36 177 -104 240 -100 92
-188 110 -536 110 l-218 0 0 -695z m592 522 c135 -66 168 -236 67 -350 -63
-72 -93 -80 -321 -85 l-198 -4 0 237 0 237 198 -3 c192 -4 198 -5 254 -32z"/>
<path d="M38230 9010 l0 -70 155 0 155 0 0 -625 0 -625 70 0 70 0 0 625 0 625
155 0 155 0 0 70 0 70 -380 0 -380 0 0 -70z"/>
<path d="M39180 8385 l0 -695 70 0 70 0 0 695 0 695 -70 0 -70 0 0 -695z"/>
<path d="M40730 9072 c0 -5 -43 -309 -95 -678 -52 -368 -95 -677 -95 -686 0
-15 10 -18 64 -18 l64 0 5 33 c4 17 34 237 67 487 33 250 62 460 64 465 2 6
114 -214 249 -487 197 -399 249 -498 265 -498 15 0 42 48 130 228 286 588 376
766 379 752 4 -22 133 -961 133 -971 0 -5 32 -9 71 -9 l71 0 -6 28 c-3 15 -46
315 -96 667 -103 730 -98 695 -114 695 -7 0 -136 -254 -287 -565 -151 -310
-277 -564 -280 -565 -3 0 -131 254 -284 565 -238 482 -305 604 -305 557z"/>
<path d="M42370 8385 l0 -695 395 0 395 0 0 70 0 70 -325 0 -325 0 0 270 0
270 325 0 325 0 0 70 0 70 -325 0 -325 0 0 215 0 215 325 0 325 0 0 70 0 70
-395 0 -395 0 0 -695z"/>
<path d="M43410 8386 l0 -696 70 0 70 0 0 520 c0 286 3 520 8 519 4 0 210
-234 457 -520 271 -312 457 -519 468 -519 16 0 17 40 17 695 l0 695 -70 0 -70
0 -2 -527 -3 -527 -455 525 c-251 288 -463 525 -473 527 -16 3 -17 -40 -17
-692z"/>
<path d="M44700 9010 l0 -70 155 0 155 0 0 -625 0 -625 70 0 70 0 0 625 0 625
155 0 155 0 0 70 0 70 -380 0 -380 0 0 -70z"/>
<path d="M31653 9016 c-93 -30 -174 -105 -193 -178 -24 -88 8 -181 109 -313
l61 -80 -38 -29 c-20 -16 -79 -71 -130 -122 -125 -124 -157 -190 -157 -319 0
-81 3 -95 29 -143 36 -65 82 -107 156 -141 49 -23 67 -26 170 -26 173 0 274
38 441 166 l64 49 90 -96 90 -95 99 3 99 3 -131 131 c-73 72 -132 133 -132
137 0 3 28 27 61 54 118 93 111 75 55 132 l-48 49 -87 -68 -86 -69 -24 22
c-12 12 -90 92 -172 178 l-149 157 88 88 c128 129 171 227 142 329 -18 63 -85
136 -152 165 -65 29 -192 37 -255 16z m192 -135 c80 -37 100 -93 60 -176 -20
-40 -144 -175 -162 -175 -13 0 -106 126 -133 179 -38 76 -16 135 65 172 51 24
119 24 170 0z m108 -788 c60 -61 106 -116 103 -122 -11 -18 -198 -138 -251
-162 -71 -31 -194 -33 -250 -2 -104 55 -141 159 -95 262 30 65 74 116 173 198
l89 74 61 -68 c34 -37 110 -118 170 -180z"/>
<path d="M22759 7893 c-19 -43 -69 -168 -120 -295 l-18 -47 46 -21 c25 -11 47
-19 48 -18 7 9 185 356 185 361 0 4 -27 20 -60 37 l-60 31 -21 -48z"/>
<path d="M10467 7202 c-35 -37 -34 -54 6 -99 19 -21 61 -74 95 -118 33 -44 86
-111 116 -150 30 -38 66 -83 79 -100 13 -16 35 -56 50 -88 l27 -58 0 -704 c0
-577 2 -705 13 -705 22 0 272 132 407 215 128 78 116 70 305 219 150 118 439
413 515 525 8 13 38 52 65 88 28 36 55 72 60 81 6 9 30 48 55 86 54 87 58 94
143 260 38 73 67 142 65 152 -3 18 -28 19 -729 24 -691 5 -726 6 -754 24 -37
24 -146 108 -201 155 -23 20 -74 61 -114 91 -41 30 -93 72 -117 93 -24 20 -48
37 -52 37 -4 0 -19 -13 -34 -28z"/>
<path d="M4776 7187 c-22 -17 -73 -60 -114 -95 -41 -35 -86 -71 -101 -80 -14
-9 -54 -40 -88 -69 -35 -29 -82 -65 -105 -80 l-42 -28 -728 -3 c-569 -2 -730
-5 -734 -15 -5 -13 132 -291 180 -367 279 -434 489 -663 860 -937 94 -70 318
-209 388 -242 24 -11 54 -26 68 -34 72 -40 119 -59 134 -54 15 6 16 70 16 724
0 822 -10 738 102 875 35 42 79 99 98 125 39 54 97 127 153 192 43 51 46 69
14 99 -32 30 -55 27 -101 -11z"/>
<path d="M5713 6483 c-15 -21 -30 -40 -33 -43 -3 -3 -33 -40 -68 -84 l-62 -79
2 -676 3 -676 778 -3 c525 -1 784 1 798 8 18 10 19 26 19 561 l0 550 -23 23
c-18 18 -39 24 -102 30 -44 4 -106 14 -140 23 -33 8 -85 19 -115 23 -68 11
-99 20 -125 35 -11 7 -44 16 -74 19 -30 4 -70 15 -90 26 -20 10 -55 22 -76 25
-22 4 -53 16 -70 25 -16 10 -48 21 -70 25 -22 4 -52 15 -67 26 -15 10 -33 19
-40 19 -7 0 -40 13 -73 29 -33 16 -87 41 -120 56 -33 15 -69 32 -80 37 -132
71 -134 72 -172 21z"/>
<path d="M9485 6483 c-38 -20 -81 -42 -95 -49 -14 -7 -36 -18 -50 -25 -14 -6
-52 -24 -85 -40 -33 -16 -65 -29 -72 -29 -7 0 -33 -11 -59 -25 -26 -14 -54
-25 -63 -25 -9 0 -29 -7 -45 -15 -16 -8 -56 -22 -89 -31 -34 -9 -73 -22 -88
-29 -15 -8 -51 -19 -80 -24 -30 -5 -81 -19 -113 -30 -33 -12 -71 -21 -86 -21
-15 0 -53 -9 -86 -20 -34 -12 -98 -23 -154 -26 -79 -4 -98 -9 -112 -26 -17
-19 -18 -61 -18 -578 0 -513 1 -558 17 -564 29 -11 1543 -7 1564 5 18 9 19 31
19 667 0 647 0 658 -21 696 -11 22 -27 46 -36 54 -8 8 -40 47 -71 86 -31 39
-61 74 -66 78 -19 13 -39 8 -111 -29z"/>
</g>
</svg>
